<svg xmlns="http://www.w3.org/2000/svg" xmlns:xlink="http://www.w3.org/1999/xlink" width="1920" zoomAndPan="magnify" viewBox="0 0 1440 809.999993" height="1080" preserveAspectRatio="xMidYMid meet" version="1.0"><defs><filter x="0%" y="0%" width="100%" height="100%" id="ecf21db309"><feColorMatrix values="0 0 0 0 1 0 0 0 0 1 0 0 0 0 1 0 0 0 1 0" color-interpolation-filters="sRGB"/></filter><mask id="1dc0848f12"><g filter="url(#ecf21db309)"><rect x="-144" width="1728" fill="#000000" y="-80.999999" height="971.999992" fill-opacity="0.2784"/></g></mask><clipPath id="c1400e1026"><path d="M 0 0 L 1440 0 L 1440 810 L 0 810 Z M 0 0 " clip-rule="nonzero"/></clipPath><clipPath id="66698886c5"><path d="M 720 0 L 991 0 L 991 389 L 720 389 Z M 720 0 " clip-rule="nonzero"/></clipPath><clipPath id="459660ad58"><path d="M 449 388 L 720 388 L 720 810 L 449 810 Z M 449 388 " clip-rule="nonzero"/></clipPath><clipPath id="3802982305"><path d="M 720 0 L 1364 0 L 1364 389 L 720 389 Z M 720 0 " clip-rule="nonzero"/></clipPath><clipPath id="d3d5d804c1"><path d="M 76 388 L 720 388 L 720 810 L 76 810 Z M 76 388 " clip-rule="nonzero"/></clipPath><clipPath id="d7d80319e4"><path d="M 720 0 L 1440 0 L 1440 390 L 720 390 Z M 720 0 " clip-rule="nonzero"/></clipPath><clipPath id="af4590189e"><path d="M 0 387 L 720 387 L 720 810 L 0 810 Z M 0 387 " clip-rule="nonzero"/></clipPath><clipPath id="dccd0245f1"><path d="M 719 388 L 1440 388 L 1440 810 L 719 810 Z M 719 388 " clip-rule="nonzero"/></clipPath><clipPath id="99b99ac1bb"><path d="M 0 0 L 721 0 L 721 389 L 0 389 Z M 0 0 " clip-rule="nonzero"/></clipPath><clipPath id="2b382efb5a"><path d="M 719 388 L 1440 388 L 1440 810 L 719 810 Z M 719 388 " clip-rule="nonzero"/></clipPath><clipPath id="3897a1c670"><path d="M 0 0 L 721 0 L 721 389 L 0 389 Z M 0 0 " clip-rule="nonzero"/></clipPath><clipPath id="2a6c65d0fb"><path d="M 706 388 L 1113 388 L 1113 810 L 706 810 Z M 706 388 " clip-rule="nonzero"/></clipPath><clipPath id="d2fd8118d8"><path d="M 327 0 L 734 0 L 734 389 L 327 389 Z M 327 0 " clip-rule="nonzero"/></clipPath><clipPath id="2408b51cd8"><path d="M 640 388 L 824 388 L 824 810 L 640 810 Z M 640 388 " clip-rule="nonzero"/></clipPath><clipPath id="d5ae72129b"><path d="M 616 0 L 800 0 L 800 389 L 616 389 Z M 616 0 " clip-rule="nonzero"/></clipPath><clipPath id="b945430a75"><rect x="0" width="1440" y="0" height="810"/></clipPath><clipPath id="ec6dbd4cae"><path d="M 37 0 L 1403 0 L 1403 5.609375 L 37 5.609375 Z M 37 0 " clip-rule="nonzero"/></clipPath></defs><rect x="-144" width="1728" fill="#ffffff" y="-80.999999" height="971.999992" fill-opacity="1"/><rect x="-144" width="1728" fill="#ffffff" y="-80.999999" height="971.999992" fill-opacity="1"/><rect x="-144" width="1728" fill="#e5cef1" y="-80.999999" height="971.999992" fill-opacity="1"/><g mask="url(#1dc0848f12)"><g transform="matrix(1, 0, 0, 1, 0, 0.000000000000039746)"><g clip-path="url(#b945430a75)"><g clip-path="url(#c1400e1026)"><rect x="-316.8" width="2073.6" fill="#d8bcf4" height="1166.39999" y="-178.199998" fill-opacity="1"/></g><g clip-path="url(#66698886c5)"><path fill="#ffe387" d="M 990.058594 -331.632812 C 915.550781 -85.996094 965.117188 204.796875 720.027344 388.367188 C 915.695312 201.398438 847.324219 -81.703125 870.105469 -331.632812 Z M 990.058594 -331.632812 " fill-opacity="1" fill-rule="nonzero"/></g><g clip-path="url(#459660ad58)"><path fill="#ffe387" d="M 569.894531 1108.367188 L 449.941406 1108.367188 C 524.449219 862.734375 474.882812 571.941406 719.972656 388.367188 C 524.304688 575.339844 592.675781 858.441406 569.894531 1108.367188 Z M 569.894531 1108.367188 " fill-opacity="1" fill-rule="nonzero"/></g><g clip-path="url(#3802982305)"><path fill="#ffe387" d="M 1363.335938 -331.632812 C 1077.351562 -151.660156 1087.863281 277.113281 720.027344 388.398438 C 1004.054688 263.722656 1005.351562 -98.234375 1159.832031 -331.632812 Z M 1363.335938 -331.632812 " fill-opacity="1" fill-rule="nonzero"/></g><g clip-path="url(#d3d5d804c1)"><path fill="#ffe387" d="M 719.972656 388.339844 C 435.945312 513.015625 434.648438 874.972656 280.167969 1108.367188 L 76.664062 1108.367188 C 362.648438 928.398438 352.136719 499.625 719.972656 388.339844 Z M 719.972656 388.339844 " fill-opacity="1" fill-rule="nonzero"/></g><g clip-path="url(#d7d80319e4)"><path fill="#d8bcf4" d="M 1440 -176.601562 L 1440 -19.410156 C 1196.46875 110.390625 1049.011719 406.597656 720.027344 388.398438 C 1056.183594 366.652344 1174.695312 -32.109375 1440 -176.601562 Z M 1440 -176.601562 " fill-opacity="1" fill-rule="nonzero"/></g><g clip-path="url(#af4590189e)"><path fill="#d8bcf4" d="M 719.972656 388.339844 C 383.816406 410.085938 265.304688 808.847656 0 953.339844 L 0 796.148438 C 243.53125 666.347656 390.988281 370.140625 719.972656 388.339844 Z M 719.972656 388.339844 " fill-opacity="1" fill-rule="nonzero"/></g><path fill="#ffe387" d="M 1440 148.78125 L 1440 272.277344 C 1204.992188 339.179688 986.976562 502.617188 720.027344 388.398438 C 987.925781 466.707031 1203.898438 250.734375 1440 148.78125 Z M 1440 148.78125 " fill-opacity="1" fill-rule="nonzero"/><path fill="#ffe387" d="M 719.972656 388.339844 C 452.074219 310.03125 236.101562 526.003906 0 627.957031 L 0 504.460938 C 235.007812 437.558594 453.023438 274.121094 719.972656 388.339844 Z M 719.972656 388.339844 " fill-opacity="1" fill-rule="nonzero"/><path fill="#ffe387" d="M 1440 412.53125 L 1440 525.832031 C 1195.199219 507.199219 932.890625 588.070312 720.027344 388.398438 C 933.753906 545.386719 1194.335938 436.695312 1440 412.53125 Z M 1440 412.53125 " fill-opacity="1" fill-rule="nonzero"/><path fill="#ffe387" d="M 719.972656 388.339844 C 506.246094 231.351562 245.664062 340.042969 0 364.207031 L 0 250.90625 C 244.800781 269.539062 507.109375 188.667969 719.972656 388.339844 Z M 719.972656 388.339844 " fill-opacity="1" fill-rule="nonzero"/><g clip-path="url(#dccd0245f1)"><path fill="#d8bcf4" d="M 1440 672.105469 L 1440 812.332031 C 1205.425781 661.59375 870.132812 685.296875 719.972656 388.398438 C 877.910156 625.164062 1191.167969 592.847656 1440 672.105469 Z M 1440 672.105469 " fill-opacity="1" fill-rule="nonzero"/></g><g clip-path="url(#99b99ac1bb)"><path fill="#d8bcf4" d="M 720.027344 388.339844 C 562.089844 151.574219 248.832031 183.890625 0 104.632812 L 0 -35.59375 C 234.574219 115.144531 569.867188 91.441406 720.027344 388.339844 Z M 720.027344 388.339844 " fill-opacity="1" fill-rule="nonzero"/></g><g clip-path="url(#2b382efb5a)"><path fill="#ffe387" d="M 1440 1056.296875 L 1440 1108.367188 L 1299.511719 1108.367188 C 1154.390625 828.03125 763.746094 753.753906 719.972656 388.398438 C 805.796875 740.421875 1277.394531 768.703125 1440 1056.296875 Z M 1440 1056.296875 " fill-opacity="1" fill-rule="nonzero"/></g><g clip-path="url(#3897a1c670)"><path fill="#ffe387" d="M 720.027344 388.339844 C 634.203125 36.316406 162.605469 8.035156 0 -279.558594 L 0 -331.632812 L 140.488281 -331.632812 C 285.609375 -51.292969 676.253906 22.984375 720.027344 388.339844 Z M 720.027344 388.339844 " fill-opacity="1" fill-rule="nonzero"/></g><g clip-path="url(#2a6c65d0fb)"><path fill="#ffe387" d="M 1112.6875 1108.367188 L 973.699219 1108.367188 C 871.832031 874.65625 650.734375 684.375 719.972656 388.398438 C 686.910156 688.0625 981.476562 868.492188 1112.6875 1108.367188 Z M 1112.6875 1108.367188 " fill-opacity="1" fill-rule="nonzero"/></g><g clip-path="url(#d2fd8118d8)"><path fill="#ffe387" d="M 720.027344 388.339844 C 753.089844 88.675781 458.523438 -91.753906 327.3125 -331.632812 L 466.300781 -331.632812 C 568.167969 -97.917969 789.265625 92.363281 720.027344 388.339844 Z M 720.027344 388.339844 " fill-opacity="1" fill-rule="nonzero"/></g><g clip-path="url(#2408b51cd8)"><path fill="#d8bcf4" d="M 823.074219 1108.367188 L 708.308594 1108.367188 C 681.148438 868.378906 563.097656 628.386719 719.972656 388.398438 C 601.371094 628.386719 757.671875 868.378906 823.074219 1108.367188 Z M 823.074219 1108.367188 " fill-opacity="1" fill-rule="nonzero"/></g><g clip-path="url(#d5ae72129b)"><path fill="#d8bcf4" d="M 720.027344 388.339844 C 838.628906 148.351562 682.328125 -91.640625 616.925781 -331.632812 L 731.691406 -331.632812 C 758.851562 -91.640625 876.902344 148.351562 720.027344 388.339844 Z M 720.027344 388.339844 " fill-opacity="1" fill-rule="nonzero"/></g></g></g></g><g clip-path="url(#ec6dbd4cae)"><path fill="#3b2f57" d="M 1402.679688 5.5 L 37.320312 5.5 L 37.320312 -8.683594 L 1402.679688 -8.683594 L 1402.679688 5.5 " fill-opacity="1" fill-rule="nonzero"/></g></svg>