<svg xmlns="http://www.w3.org/2000/svg" xmlns:xlink="http://www.w3.org/1999/xlink" width="1920" zoomAndPan="magnify" viewBox="0 0 1440 809.999993" height="1080" preserveAspectRatio="xMidYMid meet" version="1.0"><defs><linearGradient x1="0" gradientTransform="matrix(0.75, 0, 0, 0.75, 0.00000622222, 0.00002)" y1="0" x2="0" gradientUnits="userSpaceOnUse" y2="1079.999955" id="0099a2c840"><stop stop-opacity="1" stop-color="rgb(89.399719%, 79.598999%, 94.499207%)" offset="0"/><stop stop-opacity="1" stop-color="rgb(89.482117%, 79.733276%, 94.290161%)" offset="0.00390625"/><stop stop-opacity="1" stop-color="rgb(89.564514%, 79.86908%, 94.082642%)" offset="0.0078125"/><stop stop-opacity="1" stop-color="rgb(89.646912%, 80.003357%, 93.873596%)" offset="0.0117187"/><stop stop-opacity="1" stop-color="rgb(89.730835%, 80.13916%, 93.664551%)" offset="0.015625"/><stop stop-opacity="1" stop-color="rgb(89.813232%, 80.274963%, 93.455505%)" offset="0.0195312"/><stop stop-opacity="1" stop-color="rgb(89.89563%, 80.410767%, 93.247986%)" offset="0.0234375"/><stop stop-opacity="1" stop-color="rgb(89.978027%, 80.545044%, 93.03894%)" offset="0.0273438"/><stop stop-opacity="1" stop-color="rgb(90.061951%, 80.680847%, 92.829895%)" offset="0.03125"/><stop stop-opacity="1" stop-color="rgb(90.144348%, 80.815125%, 92.62085%)" offset="0.0351562"/><stop stop-opacity="1" stop-color="rgb(90.226746%, 80.950928%, 92.41333%)" offset="0.0390625"/><stop stop-opacity="1" stop-color="rgb(90.309143%, 81.085205%, 92.204285%)" offset="0.0429687"/><stop stop-opacity="1" stop-color="rgb(90.393066%, 81.221008%, 91.996765%)" offset="0.046875"/><stop stop-opacity="1" stop-color="rgb(90.475464%, 81.355286%, 91.78772%)" offset="0.0507812"/><stop stop-opacity="1" stop-color="rgb(90.557861%, 81.491089%, 91.578674%)" offset="0.0546875"/><stop stop-opacity="1" stop-color="rgb(90.640259%, 81.625366%, 91.369629%)" offset="0.0585938"/><stop stop-opacity="1" stop-color="rgb(90.724182%, 81.761169%, 91.162109%)" offset="0.0625"/><stop stop-opacity="1" stop-color="rgb(90.80658%, 81.896973%, 90.953064%)" offset="0.0664062"/><stop stop-opacity="1" stop-color="rgb(90.890503%, 82.032776%, 90.744019%)" offset="0.0703125"/><stop stop-opacity="1" stop-color="rgb(90.9729%, 82.167053%, 90.534973%)" offset="0.0742187"/><stop stop-opacity="1" stop-color="rgb(91.055298%, 82.302856%, 90.327454%)" offset="0.078125"/><stop stop-opacity="1" stop-color="rgb(91.137695%, 82.437134%, 90.118408%)" offset="0.0820312"/><stop stop-opacity="1" stop-color="rgb(91.221619%, 82.572937%, 89.910889%)" offset="0.0859375"/><stop stop-opacity="1" stop-color="rgb(91.304016%, 82.707214%, 89.701843%)" offset="0.0898437"/><stop stop-opacity="1" stop-color="rgb(91.386414%, 82.843018%, 89.492798%)" offset="0.09375"/><stop stop-opacity="1" stop-color="rgb(91.468811%, 82.977295%, 89.283752%)" offset="0.0976562"/><stop stop-opacity="1" stop-color="rgb(91.552734%, 83.113098%, 89.076233%)" offset="0.101562"/><stop stop-opacity="1" stop-color="rgb(91.635132%, 83.247375%, 88.867188%)" offset="0.105469"/><stop stop-opacity="1" stop-color="rgb(91.717529%, 83.383179%, 88.658142%)" offset="0.109375"/><stop stop-opacity="1" stop-color="rgb(91.799927%, 83.517456%, 88.449097%)" offset="0.113281"/><stop stop-opacity="1" stop-color="rgb(91.88385%, 83.653259%, 88.241577%)" offset="0.117188"/><stop stop-opacity="1" stop-color="rgb(91.966248%, 83.789062%, 88.032532%)" offset="0.121094"/><stop stop-opacity="1" stop-color="rgb(92.048645%, 83.924866%, 87.823486%)" offset="0.125"/><stop stop-opacity="1" stop-color="rgb(92.131042%, 84.059143%, 87.614441%)" offset="0.128906"/><stop stop-opacity="1" stop-color="rgb(92.214966%, 84.194946%, 87.406921%)" offset="0.132812"/><stop stop-opacity="1" stop-color="rgb(92.297363%, 84.329224%, 87.197876%)" offset="0.136719"/><stop stop-opacity="1" stop-color="rgb(92.379761%, 84.465027%, 86.990356%)" offset="0.140625"/><stop stop-opacity="1" stop-color="rgb(92.462158%, 84.599304%, 86.781311%)" offset="0.144531"/><stop stop-opacity="1" stop-color="rgb(92.546082%, 84.735107%, 86.572266%)" offset="0.148437"/><stop stop-opacity="1" stop-color="rgb(92.628479%, 84.869385%, 86.36322%)" offset="0.152344"/><stop stop-opacity="1" stop-color="rgb(92.712402%, 85.005188%, 86.155701%)" offset="0.15625"/><stop stop-opacity="1" stop-color="rgb(92.7948%, 85.139465%, 85.946655%)" offset="0.160156"/><stop stop-opacity="1" stop-color="rgb(92.877197%, 85.275269%, 85.73761%)" offset="0.164062"/><stop stop-opacity="1" stop-color="rgb(92.959595%, 85.409546%, 85.528564%)" offset="0.167969"/><stop stop-opacity="1" stop-color="rgb(93.043518%, 85.545349%, 85.321045%)" offset="0.171875"/><stop stop-opacity="1" stop-color="rgb(93.125916%, 85.681152%, 85.112%)" offset="0.175781"/><stop stop-opacity="1" stop-color="rgb(93.208313%, 85.816956%, 84.90448%)" offset="0.179687"/><stop stop-opacity="1" stop-color="rgb(93.29071%, 85.951233%, 84.695435%)" offset="0.183594"/><stop stop-opacity="1" stop-color="rgb(93.374634%, 86.087036%, 84.486389%)" offset="0.1875"/><stop stop-opacity="1" stop-color="rgb(93.457031%, 86.221313%, 84.277344%)" offset="0.191406"/><stop stop-opacity="1" stop-color="rgb(93.539429%, 86.357117%, 84.069824%)" offset="0.195312"/><stop stop-opacity="1" stop-color="rgb(93.621826%, 86.491394%, 83.860779%)" offset="0.199219"/><stop stop-opacity="1" stop-color="rgb(93.70575%, 86.627197%, 83.651733%)" offset="0.203125"/><stop stop-opacity="1" stop-color="rgb(93.788147%, 86.761475%, 83.442688%)" offset="0.207031"/><stop stop-opacity="1" stop-color="rgb(93.870544%, 86.897278%, 83.235168%)" offset="0.210938"/><stop stop-opacity="1" stop-color="rgb(93.952942%, 87.031555%, 83.026123%)" offset="0.214844"/><stop stop-opacity="1" stop-color="rgb(94.036865%, 87.167358%, 82.818604%)" offset="0.21875"/><stop stop-opacity="1" stop-color="rgb(94.119263%, 87.303162%, 82.609558%)" offset="0.222656"/><stop stop-opacity="1" stop-color="rgb(94.20166%, 87.438965%, 82.400513%)" offset="0.226562"/><stop stop-opacity="1" stop-color="rgb(94.284058%, 87.573242%, 82.191467%)" offset="0.230469"/><stop stop-opacity="1" stop-color="rgb(94.367981%, 87.709045%, 81.983948%)" offset="0.234375"/><stop stop-opacity="1" stop-color="rgb(94.450378%, 87.843323%, 81.774902%)" offset="0.238281"/><stop stop-opacity="1" stop-color="rgb(94.534302%, 87.979126%, 81.565857%)" offset="0.242188"/><stop stop-opacity="1" stop-color="rgb(94.616699%, 88.113403%, 81.356812%)" offset="0.246094"/><stop stop-opacity="1" stop-color="rgb(94.699097%, 88.249207%, 81.149292%)" offset="0.25"/><stop stop-opacity="1" stop-color="rgb(94.781494%, 88.383484%, 80.940247%)" offset="0.253906"/><stop stop-opacity="1" stop-color="rgb(94.865417%, 88.519287%, 80.732727%)" offset="0.257812"/><stop stop-opacity="1" stop-color="rgb(94.947815%, 88.653564%, 80.523682%)" offset="0.261719"/><stop stop-opacity="1" stop-color="rgb(95.030212%, 88.789368%, 80.314636%)" offset="0.265625"/><stop stop-opacity="1" stop-color="rgb(95.11261%, 88.923645%, 80.105591%)" offset="0.269531"/><stop stop-opacity="1" stop-color="rgb(95.196533%, 89.059448%, 79.898071%)" offset="0.273437"/><stop stop-opacity="1" stop-color="rgb(95.278931%, 89.195251%, 79.689026%)" offset="0.277344"/><stop stop-opacity="1" stop-color="rgb(95.361328%, 89.331055%, 79.47998%)" offset="0.28125"/><stop stop-opacity="1" stop-color="rgb(95.443726%, 89.465332%, 79.270935%)" offset="0.285156"/><stop stop-opacity="1" stop-color="rgb(95.527649%, 89.601135%, 79.063416%)" offset="0.289062"/><stop stop-opacity="1" stop-color="rgb(95.610046%, 89.735413%, 78.85437%)" offset="0.292969"/><stop stop-opacity="1" stop-color="rgb(95.692444%, 89.871216%, 78.646851%)" offset="0.296875"/><stop stop-opacity="1" stop-color="rgb(95.774841%, 90.005493%, 78.437805%)" offset="0.300781"/><stop stop-opacity="1" stop-color="rgb(95.858765%, 90.141296%, 78.22876%)" offset="0.304687"/><stop stop-opacity="1" stop-color="rgb(95.941162%, 90.275574%, 78.019714%)" offset="0.308594"/><stop stop-opacity="1" stop-color="rgb(96.02356%, 90.411377%, 77.812195%)" offset="0.3125"/><stop stop-opacity="1" stop-color="rgb(96.105957%, 90.545654%, 77.603149%)" offset="0.316406"/><stop stop-opacity="1" stop-color="rgb(96.18988%, 90.681458%, 77.394104%)" offset="0.320312"/><stop stop-opacity="1" stop-color="rgb(96.272278%, 90.817261%, 77.185059%)" offset="0.324219"/><stop stop-opacity="1" stop-color="rgb(96.356201%, 90.953064%, 76.977539%)" offset="0.328125"/><stop stop-opacity="1" stop-color="rgb(96.438599%, 91.087341%, 76.768494%)" offset="0.332031"/><stop stop-opacity="1" stop-color="rgb(96.520996%, 91.223145%, 76.559448%)" offset="0.335937"/><stop stop-opacity="1" stop-color="rgb(96.603394%, 91.357422%, 76.350403%)" offset="0.339844"/><stop stop-opacity="1" stop-color="rgb(96.687317%, 91.493225%, 76.142883%)" offset="0.34375"/><stop stop-opacity="1" stop-color="rgb(96.769714%, 91.627502%, 75.933838%)" offset="0.347656"/><stop stop-opacity="1" stop-color="rgb(96.852112%, 91.763306%, 75.726318%)" offset="0.351562"/><stop stop-opacity="1" stop-color="rgb(96.934509%, 91.897583%, 75.517273%)" offset="0.355469"/><stop stop-opacity="1" stop-color="rgb(97.018433%, 92.033386%, 75.308228%)" offset="0.359375"/><stop stop-opacity="1" stop-color="rgb(97.10083%, 92.167664%, 75.099182%)" offset="0.363281"/><stop stop-opacity="1" stop-color="rgb(97.183228%, 92.303467%, 74.891663%)" offset="0.367187"/><stop stop-opacity="1" stop-color="rgb(97.265625%, 92.437744%, 74.682617%)" offset="0.371094"/><stop stop-opacity="1" stop-color="rgb(97.349548%, 92.573547%, 74.473572%)" offset="0.375"/><stop stop-opacity="1" stop-color="rgb(97.431946%, 92.709351%, 74.264526%)" offset="0.378906"/><stop stop-opacity="1" stop-color="rgb(97.514343%, 92.845154%, 74.057007%)" offset="0.382812"/><stop stop-opacity="1" stop-color="rgb(97.596741%, 92.979431%, 73.847961%)" offset="0.386719"/><stop stop-opacity="1" stop-color="rgb(97.680664%, 93.115234%, 73.640442%)" offset="0.390625"/><stop stop-opacity="1" stop-color="rgb(97.763062%, 93.249512%, 73.431396%)" offset="0.394531"/><stop stop-opacity="1" stop-color="rgb(97.845459%, 93.385315%, 73.222351%)" offset="0.398438"/><stop stop-opacity="1" stop-color="rgb(97.927856%, 93.519592%, 73.013306%)" offset="0.402344"/><stop stop-opacity="1" stop-color="rgb(98.01178%, 93.655396%, 72.805786%)" offset="0.40625"/><stop stop-opacity="1" stop-color="rgb(98.094177%, 93.789673%, 72.596741%)" offset="0.410156"/><stop stop-opacity="1" stop-color="rgb(98.178101%, 93.925476%, 72.387695%)" offset="0.414062"/><stop stop-opacity="1" stop-color="rgb(98.260498%, 94.059753%, 72.17865%)" offset="0.417969"/><stop stop-opacity="1" stop-color="rgb(98.342896%, 94.195557%, 71.97113%)" offset="0.421875"/><stop stop-opacity="1" stop-color="rgb(98.425293%, 94.33136%, 71.762085%)" offset="0.425781"/><stop stop-opacity="1" stop-color="rgb(98.509216%, 94.467163%, 71.554565%)" offset="0.429688"/><stop stop-opacity="1" stop-color="rgb(98.591614%, 94.60144%, 71.34552%)" offset="0.433594"/><stop stop-opacity="1" stop-color="rgb(98.674011%, 94.737244%, 71.136475%)" offset="0.4375"/><stop stop-opacity="1" stop-color="rgb(98.756409%, 94.871521%, 70.927429%)" offset="0.441406"/><stop stop-opacity="1" stop-color="rgb(98.840332%, 95.007324%, 70.71991%)" offset="0.445312"/><stop stop-opacity="1" stop-color="rgb(98.922729%, 95.141602%, 70.510864%)" offset="0.449219"/><stop stop-opacity="1" stop-color="rgb(99.005127%, 95.277405%, 70.301819%)" offset="0.453125"/><stop stop-opacity="1" stop-color="rgb(99.087524%, 95.411682%, 70.092773%)" offset="0.457031"/><stop stop-opacity="1" stop-color="rgb(99.171448%, 95.547485%, 69.885254%)" offset="0.460938"/><stop stop-opacity="1" stop-color="rgb(99.253845%, 95.681763%, 69.676208%)" offset="0.464844"/><stop stop-opacity="1" stop-color="rgb(99.336243%, 95.817566%, 69.468689%)" offset="0.46875"/><stop stop-opacity="1" stop-color="rgb(99.41864%, 95.951843%, 69.259644%)" offset="0.472656"/><stop stop-opacity="1" stop-color="rgb(99.502563%, 96.087646%, 69.050598%)" offset="0.476562"/><stop stop-opacity="1" stop-color="rgb(99.584961%, 96.22345%, 68.841553%)" offset="0.480469"/><stop stop-opacity="1" stop-color="rgb(99.667358%, 96.359253%, 68.634033%)" offset="0.484375"/><stop stop-opacity="1" stop-color="rgb(99.749756%, 96.49353%, 68.424988%)" offset="0.488281"/><stop stop-opacity="1" stop-color="rgb(99.833679%, 96.629333%, 68.215942%)" offset="0.492188"/><stop stop-opacity="1" stop-color="rgb(99.916077%, 96.763611%, 68.006897%)" offset="0.496094"/><stop stop-opacity="1" stop-color="rgb(99.998474%, 96.899414%, 67.799377%)" offset="0.5"/><stop stop-opacity="1" stop-color="rgb(99.998474%, 96.899414%, 67.799377%)" offset="1"/></linearGradient><clipPath id="463ce0303f"><path d="M 0 0 L 1440 0 L 1440 81 L 0 81 Z M 0 0 " clip-rule="nonzero"/></clipPath><clipPath id="78076819fb"><path d="M 725.183594 -1442.292969 C -171.042969 -1442.292969 -897.574219 -1101.292969 -897.574219 -680.648438 C -897.574219 -260 -171.042969 81 725.183594 81 C 1621.40625 81 2347.941406 -260 2347.941406 -680.648438 C 2347.941406 -1101.292969 1621.40625 -1442.292969 725.183594 -1442.292969 " clip-rule="nonzero"/></clipPath><clipPath id="f602c36bbb"><path d="M 119 240 L 153.523438 240 L 153.523438 275 L 119 275 Z M 119 240 " clip-rule="nonzero"/></clipPath><clipPath id="9a951c9f71"><path d="M 113.023438 234.199219 L 153 234.199219 L 153 280.699219 L 113.023438 280.699219 Z M 113.023438 234.199219 " clip-rule="nonzero"/></clipPath><clipPath id="f93c7459ab"><path d="M 1297 377 L 1320.640625 377 L 1320.640625 401 L 1297 401 Z M 1297 377 " clip-rule="nonzero"/></clipPath><clipPath id="cbd82f0081"><path d="M 1292.890625 373.09375 L 1320 373.09375 L 1320 405.34375 L 1292.890625 405.34375 Z M 1292.890625 373.09375 " clip-rule="nonzero"/></clipPath><clipPath id="3422ea0d99"><path d="M 581 510 L 604.839844 510 L 604.839844 534 L 581 534 Z M 581 510 " clip-rule="nonzero"/></clipPath><clipPath id="e85b8c9961"><path d="M 577.089844 505.992188 L 604 505.992188 L 604 538.242188 L 577.089844 538.242188 Z M 577.089844 505.992188 " clip-rule="nonzero"/></clipPath><clipPath id="abddc4f2a7"><path d="M 691.257812 0 L 749.007812 0 L 749.007812 57.75 L 691.257812 57.75 Z M 691.257812 0 " clip-rule="nonzero"/></clipPath></defs><rect x="-144" width="1728" fill="#ffffff" y="-80.999999" height="971.999992" fill-opacity="1"/><rect x="-144" width="1728" fill="#ffffff" y="-80.999999" height="971.999992" fill-opacity="1"/><rect x="-144" fill="url(#0099a2c840)" width="1728" y="-80.999999" height="971.999992"/><g clip-path="url(#463ce0303f)"><g clip-path="url(#78076819fb)"><path fill="#fff7ad" d="M -897.574219 -1442.292969 L 2347.941406 -1442.292969 L 2347.941406 81 L -897.574219 81 Z M -897.574219 -1442.292969 " fill-opacity="1" fill-rule="nonzero"/></g></g><g clip-path="url(#f602c36bbb)"><path fill="#f6f3ea" d="M 132.890625 240.636719 C 133.34375 242.628906 133.929688 244.460938 134.699219 246.238281 C 135.542969 248.179688 136.550781 250.03125 137.851562 251.710938 C 139.988281 254.496094 142.816406 256.273438 146.152344 257.300781 C 146.273438 257.335938 146.390625 257.378906 146.523438 257.410156 C 146.476562 257.53125 146.390625 257.507812 146.316406 257.53125 C 141.765625 258.839844 138.414062 261.617188 136.140625 265.746094 C 134.730469 268.300781 133.667969 270.988281 133.007812 273.828125 C 132.988281 273.9375 132.953125 274.035156 132.910156 274.207031 C 132.824219 273.871094 132.746094 273.589844 132.671875 273.320312 C 132.597656 273.039062 132.519531 272.746094 132.445312 272.464844 C 131.546875 269.34375 130.203125 266.425781 128.335938 263.761719 C 126.125 260.609375 123.136719 258.558594 119.472656 257.445312 C 119.363281 257.410156 119.246094 257.378906 119.0625 257.324219 C 119.429688 257.207031 119.742188 257.097656 120.058594 257 C 124.242188 255.589844 127.339844 252.902344 129.539062 249.097656 C 131.015625 246.5625 132.097656 243.875 132.800781 241.027344 C 132.800781 240.929688 132.835938 240.832031 132.890625 240.636719 Z M 153.402344 257.476562 C 153.003906 257.53125 152.601562 257.324219 152.199219 257.453125 C 152.589844 257.542969 152.980469 257.488281 153.457031 257.476562 C 153.382812 257.476562 153.390625 257.476562 153.402344 257.476562 Z M 153.402344 257.476562 " fill-opacity="1" fill-rule="evenodd"/></g><g clip-path="url(#9a951c9f71)"><path fill="#42321f" d="M 132.898438 280.699219 C 132.671875 277.351562 132.109375 274.097656 130.992188 270.945312 C 130.148438 268.5625 129.007812 266.339844 127.566406 264.269531 C 125.304688 261.050781 122.203125 259.070312 118.433594 258.09375 C 116.796875 257.671875 115.125 257.464844 113.4375 257.378906 C 113.316406 257.367188 113.207031 257.367188 113.089844 257.347656 C 114.984375 257.25 116.859375 257 118.703125 256.488281 C 122.90625 255.332031 126.136719 252.902344 128.433594 249.175781 C 130.503906 245.804688 131.792969 242.164062 132.433594 238.273438 C 132.652344 236.929688 132.78125 235.5625 132.910156 234.199219 C 132.964844 234.796875 133.007812 235.402344 133.0625 235.996094 C 133.496094 240.484375 134.667969 244.742188 136.921875 248.675781 C 138.296875 251.082031 140.007812 253.164062 142.394531 254.636719 C 144.496094 255.925781 146.78125 256.695312 149.199219 257.074219 C 150.140625 257.226562 151.09375 257.324219 152.039062 257.464844 C 150.933594 257.550781 149.839844 257.660156 148.742188 257.855469 C 144.960938 258.539062 141.613281 260.054688 139.066406 263.035156 C 137.257812 265.160156 135.988281 267.609375 135.003906 270.199219 C 133.929688 273.015625 133.3125 275.941406 133.050781 278.945312 C 132.996094 279.550781 132.953125 280.125 132.898438 280.699219 Z M 132.890625 240.636719 C 132.835938 240.832031 132.800781 240.929688 132.78125 241.035156 C 132.074219 243.886719 130.992188 246.574219 129.519531 249.109375 C 127.320312 252.902344 124.21875 255.601562 120.035156 257.011719 C 119.722656 257.117188 119.417969 257.214844 119.039062 257.335938 C 119.222656 257.390625 119.332031 257.421875 119.449219 257.453125 C 123.113281 258.570312 126.105469 260.617188 128.316406 263.773438 C 130.179688 266.4375 131.523438 269.351562 132.421875 272.472656 C 132.507812 272.753906 132.574219 273.046875 132.652344 273.328125 C 132.726562 273.601562 132.792969 273.871094 132.890625 274.21875 C 132.933594 274.046875 132.964844 273.9375 132.988281 273.839844 C 133.648438 271 134.710938 268.3125 136.117188 265.753906 C 138.394531 261.625 141.753906 258.851562 146.292969 257.542969 C 146.371094 257.519531 146.46875 257.53125 146.5 257.421875 C 146.382812 257.390625 146.261719 257.347656 146.132812 257.3125 C 142.804688 256.285156 139.964844 254.507812 137.832031 251.722656 C 136.539062 250.042969 135.523438 248.1875 134.675781 246.25 C 133.929688 244.460938 133.34375 242.617188 132.890625 240.636719 Z M 132.890625 240.636719 " fill-opacity="1" fill-rule="evenodd"/></g><g clip-path="url(#f93c7459ab)"><path fill="#f6f3ea" d="M 1306.503906 377.558594 C 1306.816406 378.941406 1307.214844 380.210938 1307.742188 381.445312 C 1308.320312 382.789062 1309.011719 384.074219 1309.902344 385.242188 C 1311.367188 387.171875 1313.304688 388.40625 1315.589844 389.117188 C 1315.671875 389.140625 1315.753906 389.171875 1315.84375 389.195312 C 1315.8125 389.277344 1315.753906 389.261719 1315.703125 389.277344 C 1312.582031 390.1875 1310.289062 392.109375 1308.730469 394.972656 C 1307.765625 396.746094 1307.039062 398.609375 1306.585938 400.582031 C 1306.570312 400.65625 1306.546875 400.722656 1306.519531 400.84375 C 1306.457031 400.609375 1306.40625 400.414062 1306.355469 400.226562 C 1306.300781 400.03125 1306.25 399.828125 1306.199219 399.632812 C 1305.582031 397.46875 1304.660156 395.445312 1303.382812 393.597656 C 1301.871094 391.410156 1299.820312 389.992188 1297.3125 389.214844 C 1297.238281 389.195312 1297.15625 389.171875 1297.027344 389.132812 C 1297.28125 389.050781 1297.496094 388.976562 1297.710938 388.910156 C 1300.578125 387.929688 1302.703125 386.066406 1304.207031 383.429688 C 1305.21875 381.671875 1305.960938 379.808594 1306.445312 377.828125 C 1306.445312 377.761719 1306.464844 377.695312 1306.503906 377.558594 Z M 1320.558594 389.238281 C 1320.28125 389.277344 1320.007812 389.132812 1319.734375 389.222656 C 1320 389.285156 1320.269531 389.246094 1320.59375 389.238281 C 1320.542969 389.238281 1320.550781 389.238281 1320.558594 389.238281 Z M 1320.558594 389.238281 " fill-opacity="1" fill-rule="evenodd"/></g><g clip-path="url(#cbd82f0081)"><path fill="#42321f" d="M 1306.511719 405.34375 C 1306.355469 403.023438 1305.96875 400.769531 1305.203125 398.582031 C 1304.625 396.925781 1303.84375 395.386719 1302.855469 393.953125 C 1301.304688 391.71875 1299.183594 390.34375 1296.597656 389.667969 C 1295.476562 389.375 1294.335938 389.230469 1293.175781 389.171875 C 1293.09375 389.164062 1293.019531 389.164062 1292.9375 389.148438 C 1294.238281 389.082031 1295.523438 388.910156 1296.785156 388.554688 C 1299.664062 387.75 1301.878906 386.066406 1303.453125 383.480469 C 1304.871094 381.144531 1305.753906 378.621094 1306.191406 375.921875 C 1306.339844 374.988281 1306.429688 374.042969 1306.519531 373.09375 C 1306.554688 373.507812 1306.585938 373.929688 1306.621094 374.34375 C 1306.917969 377.453125 1307.71875 380.40625 1309.265625 383.136719 C 1310.207031 384.804688 1311.378906 386.246094 1313.015625 387.269531 C 1314.453125 388.164062 1316.019531 388.699219 1317.675781 388.960938 C 1318.324219 389.066406 1318.976562 389.132812 1319.621094 389.230469 C 1318.863281 389.292969 1318.113281 389.367188 1317.363281 389.503906 C 1314.773438 389.976562 1312.480469 391.027344 1310.734375 393.09375 C 1309.496094 394.566406 1308.625 396.265625 1307.949219 398.0625 C 1307.214844 400.015625 1306.792969 402.046875 1306.613281 404.128906 C 1306.578125 404.546875 1306.546875 404.945312 1306.511719 405.34375 Z M 1306.503906 377.558594 C 1306.464844 377.695312 1306.445312 377.761719 1306.429688 377.835938 C 1305.945312 379.8125 1305.203125 381.679688 1304.195312 383.4375 C 1302.6875 386.066406 1300.5625 387.9375 1297.699219 388.914062 C 1297.480469 388.992188 1297.273438 389.058594 1297.015625 389.140625 C 1297.140625 389.179688 1297.214844 389.203125 1297.296875 389.222656 C 1299.804688 389.996094 1301.855469 391.417969 1303.371094 393.605469 C 1304.648438 395.453125 1305.566406 397.476562 1306.183594 399.640625 C 1306.242188 399.835938 1306.289062 400.039062 1306.339844 400.234375 C 1306.390625 400.421875 1306.4375 400.609375 1306.503906 400.851562 C 1306.53125 400.730469 1306.554688 400.65625 1306.570312 400.585938 C 1307.023438 398.617188 1307.75 396.753906 1308.714844 394.980469 C 1310.273438 392.117188 1312.574219 390.195312 1315.6875 389.285156 C 1315.738281 389.269531 1315.804688 389.277344 1315.828125 389.203125 C 1315.746094 389.179688 1315.664062 389.148438 1315.574219 389.125 C 1313.296875 388.414062 1311.351562 387.179688 1309.886719 385.25 C 1309.003906 384.082031 1308.308594 382.796875 1307.726562 381.453125 C 1307.214844 380.210938 1306.816406 378.933594 1306.503906 377.558594 Z M 1306.503906 377.558594 " fill-opacity="1" fill-rule="evenodd"/></g><g clip-path="url(#3422ea0d99)"><path fill="#f6f3ea" d="M 590.699219 510.457031 C 591.011719 511.839844 591.414062 513.109375 591.941406 514.34375 C 592.519531 515.6875 593.210938 516.972656 594.101562 518.136719 C 595.5625 520.070312 597.5 521.300781 599.789062 522.015625 C 599.871094 522.039062 599.953125 522.070312 600.039062 522.089844 C 600.011719 522.171875 599.953125 522.160156 599.898438 522.171875 C 596.78125 523.082031 594.488281 525.007812 592.929688 527.871094 C 591.964844 529.644531 591.234375 531.507812 590.78125 533.476562 C 590.769531 533.550781 590.746094 533.621094 590.714844 533.742188 C 590.65625 533.507812 590.605469 533.3125 590.550781 533.125 C 590.5 532.929688 590.449219 532.726562 590.398438 532.53125 C 589.78125 530.367188 588.859375 528.34375 587.582031 526.496094 C 586.066406 524.308594 584.019531 522.886719 581.507812 522.113281 C 581.433594 522.089844 581.355469 522.070312 581.226562 522.03125 C 581.480469 521.949219 581.695312 521.875 581.910156 521.804688 C 584.777344 520.828125 586.898438 518.964844 588.40625 516.328125 C 589.417969 514.566406 590.160156 512.703125 590.640625 510.726562 C 590.640625 510.660156 590.664062 510.59375 590.699219 510.457031 Z M 604.753906 522.136719 C 604.480469 522.171875 604.207031 522.03125 603.929688 522.121094 C 604.199219 522.179688 604.464844 522.144531 604.792969 522.136719 C 604.742188 522.136719 604.75 522.136719 604.753906 522.136719 Z M 604.753906 522.136719 " fill-opacity="1" fill-rule="evenodd"/></g><g clip-path="url(#e85b8c9961)"><path fill="#42321f" d="M 590.707031 538.242188 C 590.550781 535.921875 590.167969 533.664062 589.402344 531.476562 C 588.824219 529.824219 588.042969 528.285156 587.054688 526.847656 C 585.503906 524.617188 583.378906 523.242188 580.796875 522.566406 C 579.675781 522.269531 578.53125 522.128906 577.375 522.070312 C 577.292969 522.0625 577.21875 522.0625 577.136719 522.046875 C 578.4375 521.976562 579.71875 521.804688 580.984375 521.453125 C 583.863281 520.648438 586.074219 518.964844 587.648438 516.378906 C 589.066406 514.042969 589.953125 511.515625 590.390625 508.816406 C 590.539062 507.886719 590.625 506.9375 590.714844 505.992188 C 590.753906 506.40625 590.78125 506.828125 590.820312 507.238281 C 591.117188 510.351562 591.917969 513.304688 593.464844 516.035156 C 594.40625 517.703125 595.578125 519.144531 597.210938 520.167969 C 598.652344 521.0625 600.21875 521.59375 601.875 521.859375 C 602.519531 521.964844 603.175781 522.03125 603.820312 522.128906 C 603.0625 522.1875 602.3125 522.265625 601.5625 522.398438 C 598.972656 522.871094 596.679688 523.925781 594.933594 525.992188 C 593.691406 527.464844 592.824219 529.164062 592.148438 530.960938 C 591.414062 532.914062 590.992188 534.941406 590.8125 537.023438 C 590.773438 537.445312 590.746094 537.84375 590.707031 538.242188 Z M 590.699219 510.457031 C 590.664062 510.59375 590.640625 510.660156 590.625 510.734375 C 590.144531 512.710938 589.402344 514.574219 588.390625 516.335938 C 586.886719 518.964844 584.761719 520.835938 581.894531 521.8125 C 581.679688 521.886719 581.472656 521.957031 581.210938 522.039062 C 581.339844 522.074219 581.414062 522.097656 581.496094 522.121094 C 584.003906 522.894531 586.054688 524.316406 587.566406 526.503906 C 588.84375 528.351562 589.765625 530.375 590.382812 532.539062 C 590.441406 532.734375 590.484375 532.9375 590.539062 533.132812 C 590.589844 533.320312 590.632812 533.507812 590.699219 533.746094 C 590.730469 533.628906 590.753906 533.550781 590.769531 533.484375 C 591.222656 531.515625 591.949219 529.652344 592.914062 527.878906 C 594.472656 525.015625 596.773438 523.089844 599.886719 522.179688 C 599.9375 522.167969 600.003906 522.171875 600.027344 522.097656 C 599.945312 522.074219 599.863281 522.046875 599.773438 522.023438 C 597.496094 521.308594 595.550781 520.078125 594.085938 518.144531 C 593.203125 516.980469 592.503906 515.695312 591.925781 514.351562 C 591.414062 513.109375 591.011719 511.832031 590.699219 510.457031 Z M 590.699219 510.457031 " fill-opacity="1" fill-rule="evenodd"/></g><g clip-path="url(#abddc4f2a7)"><path fill="#fff7ad" d="M 720.132812 57.75 C 719.1875 57.75 718.242188 57.703125 717.300781 57.609375 C 716.359375 57.519531 715.425781 57.378906 714.5 57.195312 C 713.570312 57.011719 712.65625 56.78125 711.75 56.507812 C 710.84375 56.230469 709.957031 55.914062 709.082031 55.550781 C 708.207031 55.191406 707.355469 54.785156 706.519531 54.339844 C 705.6875 53.894531 704.875 53.410156 704.089844 52.882812 C 703.304688 52.359375 702.542969 51.796875 701.8125 51.195312 C 701.082031 50.597656 700.382812 49.960938 699.714844 49.292969 C 699.046875 48.625 698.410156 47.925781 697.8125 47.191406 C 697.210938 46.460938 696.648438 45.703125 696.121094 44.917969 C 695.597656 44.128906 695.113281 43.320312 694.667969 42.488281 C 694.21875 41.652344 693.816406 40.796875 693.453125 39.925781 C 693.09375 39.050781 692.773438 38.160156 692.5 37.257812 C 692.226562 36.351562 691.996094 35.4375 691.8125 34.507812 C 691.625 33.582031 691.488281 32.644531 691.394531 31.707031 C 691.304688 30.765625 691.257812 29.820312 691.257812 28.875 C 691.257812 27.929688 691.304688 26.984375 691.394531 26.042969 C 691.488281 25.105469 691.625 24.167969 691.8125 23.242188 C 691.996094 22.3125 692.226562 21.398438 692.5 20.492188 C 692.773438 19.589844 693.09375 18.699219 693.453125 17.824219 C 693.816406 16.953125 694.21875 16.097656 694.667969 15.261719 C 695.113281 14.429688 695.597656 13.621094 696.121094 12.832031 C 696.648438 12.046875 697.210938 11.289062 697.8125 10.558594 C 698.410156 9.824219 699.046875 9.125 699.714844 8.457031 C 700.382812 7.789062 701.082031 7.152344 701.8125 6.554688 C 702.542969 5.953125 703.304688 5.390625 704.089844 4.867188 C 704.875 4.339844 705.6875 3.855469 706.519531 3.410156 C 707.355469 2.964844 708.207031 2.558594 709.082031 2.199219 C 709.957031 1.835938 710.84375 1.519531 711.75 1.242188 C 712.65625 0.96875 713.570312 0.738281 714.5 0.554688 C 715.425781 0.371094 716.359375 0.230469 717.300781 0.140625 C 718.242188 0.046875 719.1875 0 720.132812 0 C 721.078125 0 722.019531 0.046875 722.960938 0.140625 C 723.902344 0.230469 724.835938 0.371094 725.765625 0.554688 C 726.691406 0.738281 727.609375 0.96875 728.511719 1.242188 C 729.417969 1.519531 730.308594 1.835938 731.179688 2.199219 C 732.054688 2.558594 732.910156 2.964844 733.742188 3.410156 C 734.578125 3.855469 735.386719 4.339844 736.171875 4.867188 C 736.960938 5.390625 737.71875 5.953125 738.449219 6.554688 C 739.179688 7.152344 739.878906 7.789062 740.550781 8.457031 C 741.21875 9.125 741.851562 9.824219 742.453125 10.558594 C 743.050781 11.289062 743.613281 12.046875 744.140625 12.832031 C 744.664062 13.621094 745.152344 14.429688 745.597656 15.261719 C 746.042969 16.097656 746.445312 16.953125 746.808594 17.824219 C 747.171875 18.699219 747.488281 19.589844 747.761719 20.492188 C 748.039062 21.398438 748.265625 22.3125 748.453125 23.242188 C 748.636719 24.167969 748.773438 25.105469 748.867188 26.042969 C 748.960938 26.984375 749.007812 27.929688 749.007812 28.875 C 749.007812 29.820312 748.960938 30.765625 748.867188 31.707031 C 748.773438 32.644531 748.636719 33.582031 748.453125 34.507812 C 748.265625 35.4375 748.039062 36.351562 747.761719 37.257812 C 747.488281 38.160156 747.171875 39.050781 746.808594 39.925781 C 746.445312 40.796875 746.042969 41.652344 745.597656 42.488281 C 745.152344 43.320312 744.664062 44.128906 744.140625 44.917969 C 743.613281 45.703125 743.050781 46.460938 742.453125 47.191406 C 741.851562 47.925781 741.21875 48.625 740.550781 49.292969 C 739.878906 49.960938 739.179688 50.597656 738.449219 51.195312 C 737.71875 51.796875 736.960938 52.359375 736.171875 52.882812 C 735.386719 53.410156 734.578125 53.894531 733.742188 54.339844 C 732.910156 54.785156 732.054688 55.191406 731.179688 55.550781 C 730.308594 55.914062 729.417969 56.230469 728.511719 56.507812 C 727.609375 56.78125 726.691406 57.011719 725.765625 57.195312 C 724.835938 57.378906 723.902344 57.519531 722.960938 57.609375 C 722.019531 57.703125 721.078125 57.75 720.132812 57.75 Z M 720.132812 57.75 " fill-opacity="1" fill-rule="nonzero"/></g><path fill="#a987bd" d="M 720.421875 45.050781 C 720.539062 45.050781 720.59375 45.050781 720.710938 44.992188 C 720.828125 44.992188 720.886719 44.9375 721 44.9375 C 721.117188 44.9375 721.175781 44.878906 721.292969 44.820312 C 721.40625 44.761719 721.464844 44.761719 721.582031 44.703125 C 721.695312 44.644531 721.753906 44.589844 721.8125 44.53125 C 721.929688 44.472656 721.988281 44.414062 722.101562 44.355469 C 722.160156 44.296875 722.160156 44.296875 722.21875 44.296875 L 734.628906 33.222656 C 735.960938 32.0625 736.019531 30.035156 734.859375 28.757812 C 733.699219 27.425781 731.667969 27.367188 730.394531 28.527344 L 720.132812 37.628906 L 709.867188 28.46875 C 708.535156 27.308594 706.5625 27.425781 705.402344 28.699219 C 704.882812 29.28125 704.59375 30.035156 704.59375 30.789062 C 704.59375 31.65625 704.941406 32.527344 705.636719 33.164062 L 717.984375 44.238281 C 718.042969 44.296875 718.042969 44.296875 718.101562 44.296875 C 718.21875 44.355469 718.277344 44.414062 718.390625 44.472656 C 718.449219 44.53125 718.566406 44.589844 718.625 44.644531 C 718.738281 44.703125 718.796875 44.761719 718.914062 44.761719 C 719.03125 44.820312 719.085938 44.820312 719.203125 44.878906 C 719.320312 44.878906 719.378906 44.9375 719.492188 44.9375 C 719.609375 44.9375 719.667969 44.992188 719.785156 44.992188 C 719.898438 44.992188 719.957031 44.992188 720.074219 44.992188 C 720.246094 45.050781 720.304688 45.050781 720.421875 45.050781 Z M 720.421875 45.050781 " fill-opacity="1" fill-rule="nonzero"/><path fill="#a987bd" d="M 718.101562 29.339844 C 718.21875 29.398438 718.277344 29.453125 718.390625 29.511719 C 718.449219 29.570312 718.566406 29.628906 718.625 29.6875 C 718.738281 29.746094 718.796875 29.800781 718.914062 29.800781 C 719.03125 29.859375 719.085938 29.859375 719.203125 29.917969 C 719.320312 29.917969 719.378906 29.976562 719.492188 29.976562 C 719.609375 29.976562 719.667969 30.035156 719.785156 30.035156 C 719.898438 30.035156 719.957031 30.035156 720.074219 30.035156 C 720.191406 30.035156 720.246094 30.035156 720.363281 30.035156 C 720.480469 30.035156 720.539062 30.035156 720.652344 29.976562 C 720.769531 29.976562 720.828125 29.917969 720.941406 29.917969 C 721.058594 29.917969 721.117188 29.859375 721.234375 29.800781 C 721.347656 29.746094 721.40625 29.746094 721.523438 29.6875 C 721.640625 29.628906 721.695312 29.570312 721.753906 29.511719 C 721.871094 29.453125 721.929688 29.398438 722.042969 29.339844 C 722.101562 29.28125 722.101562 29.28125 722.160156 29.28125 L 734.628906 18.207031 C 735.960938 17.046875 736.019531 15.015625 734.859375 13.742188 C 733.699219 12.40625 731.667969 12.351562 730.394531 13.511719 L 720.132812 22.671875 L 709.867188 13.511719 C 708.535156 12.351562 706.5625 12.464844 705.402344 13.742188 C 704.882812 14.320312 704.59375 15.074219 704.59375 15.828125 C 704.59375 16.699219 704.941406 17.570312 705.636719 18.207031 L 717.984375 29.28125 C 718.042969 29.339844 718.101562 29.339844 718.101562 29.339844 Z M 718.101562 29.339844 " fill-opacity="1" fill-rule="nonzero"/></svg>